<svg xmlns="http://www.w3.org/2000/svg" xmlns:xlink="http://www.w3.org/1999/xlink" width="40" height="40" viewBox="0 0 40 40">
  <defs>
    <clipPath id="clip-path">
      <rect id="Rectangle_6900" data-name="Rectangle 6900" width="40" height="40" transform="translate(213 1759)" fill="#fff"/>
    </clipPath>
  </defs>
  <g id="Mask_Group_489" data-name="Mask Group 489" transform="translate(-213 -1759)" clip-path="url(#clip-path)">
    <g id="download_20_" data-name="download (20)" transform="translate(213 1759)">
      <g id="Group_13583" data-name="Group 13583">
        <g id="Group_13582" data-name="Group 13582">
          <path id="Path_14107" data-name="Path 14107" d="M17.729,31.246a4.969,4.969,0,0,1-5.629.843,5.128,5.128,0,0,1-1.732-1.344l-2.6,5.761a.5.5,0,0,0,.591.689l1.9-.528a2.415,2.415,0,0,1,2.826,1.278l.856,1.772a.5.5,0,0,0,.907-.012l4.143-9.164A3.109,3.109,0,0,0,17.729,31.246Z" fill="#fff"/>
        </g>
      </g>
      <g id="Group_13585" data-name="Group 13585">
        <g id="Group_13584" data-name="Group 13584">
          <path id="Path_14108" data-name="Path 14108" d="M32.237,36.506l-2.6-5.761A5.126,5.126,0,0,1,27.9,32.089a4.969,4.969,0,0,1-5.629-.843,3.108,3.108,0,0,0-1.254-.7l4.143,9.164a.5.5,0,0,0,.907.012l.856-1.772a2.415,2.415,0,0,1,2.826-1.278l1.9.528a.5.5,0,0,0,.591-.689Z" fill="#fff"/>
        </g>
      </g>
      <g id="Group_13587" data-name="Group 13587">
        <g id="Group_13586" data-name="Group 13586">
          <path id="Path_14109" data-name="Path 14109" d="M34.283,16.234a5.085,5.085,0,0,1-1.528-6.7,3.142,3.142,0,0,0-3.645-4.57,5.085,5.085,0,0,1-6.188-2.98,3.142,3.142,0,0,0-5.845,0,5.085,5.085,0,0,1-6.188,2.98,3.142,3.142,0,0,0-3.645,4.57,5.085,5.085,0,0,1-1.528,6.7,3.142,3.142,0,0,0,1.3,5.7A5.085,5.085,0,0,1,11.3,27.3a3.142,3.142,0,0,0,5.266,2.536,5.085,5.085,0,0,1,6.868,0A3.142,3.142,0,0,0,28.7,27.3a5.085,5.085,0,0,1,4.282-5.369,3.142,3.142,0,0,0,1.3-5.7ZM20,26.244A10.283,10.283,0,1,1,30.283,15.961,10.294,10.294,0,0,1,20,26.244Z" fill="#fff"/>
        </g>
      </g>
      <g id="Group_13589" data-name="Group 13589">
        <g id="Group_13588" data-name="Group 13588">
          <path id="Path_14110" data-name="Path 14110" d="M20,7.6a8.366,8.366,0,1,0,8.366,8.366A8.375,8.375,0,0,0,20,7.6Zm4.287,7.554-5.206,3.8a.959.959,0,0,1-1.35-.223l-1.557-2.217a.959.959,0,1,1,1.569-1.1l1,1.418L23.156,13.6a.959.959,0,1,1,1.131,1.548Z" fill="#fff"/>
        </g>
      </g>
    </g>
  </g>
</svg>
