<svg xmlns="http://www.w3.org/2000/svg" xmlns:xlink="http://www.w3.org/1999/xlink" width="40" height="40" viewBox="0 0 40 40">
  <defs>
    <clipPath id="clip-path">
      <rect id="Rectangle_1297" data-name="Rectangle 1297" width="40" height="40" transform="translate(798.467 786.467)" fill="#cb1515" stroke="#7d7d7d" stroke-width="1"/>
    </clipPath>
  </defs>
  <g id="Mask_Group_471" data-name="Mask Group 471" transform="translate(-798.467 -786.467)" clip-path="url(#clip-path)">
    <g id="download_15_" data-name="download (15)" transform="translate(798.385 785.844)">
      <g id="XMLID_7_" transform="translate(0)">
        <path id="XMLID_8_" d="M38.753,18.17c.05-5.815-4.9-11.146-11.04-11.883-.122-.014-.255-.037-.4-.06a5.739,5.739,0,0,0-.935-.1A1.571,1.571,0,0,0,24.7,7.535a1.63,1.63,0,0,0,.244,1.279,2.416,2.416,0,0,0,1.738.748c.173.024.335.046.472.077,5.514,1.232,7.371,3.169,8.278,8.636.022.134.032.3.043.473.04.654.122,2.013,1.584,2.013h0a2.6,2.6,0,0,0,.389-.031c1.361-.207,1.319-1.45,1.3-2.047a3.032,3.032,0,0,1,0-.433A.582.582,0,0,0,38.753,18.17Z" transform="translate(-4.012 -0.862)" fill="#cb1515"/>
        <path id="XMLID_9_" d="M25.919,3.29c.163.012.318.023.447.043,9.054,1.392,13.219,5.682,14.372,14.808a5.335,5.335,0,0,1,.026.545c.012.713.035,2.2,1.628,2.227h.049a1.563,1.563,0,0,0,1.181-.448,2.5,2.5,0,0,0,.433-1.908c-.007-.152-.013-.295-.012-.42C44.16,8.8,36.081.34,26.757.026a.646.646,0,0,0-.113.006.78.78,0,0,1-.11.006c-.093,0-.207-.008-.329-.016C26.058.012,25.892,0,25.723,0a1.639,1.639,0,0,0-1.8,1.685C23.837,3.139,25.243,3.241,25.919,3.29Z" transform="translate(-3.906)" fill="#cb1515"/>
        <path id="XMLID_10_" d="M37.024,30.271c-.193-.147-.392-.3-.578-.449-.989-.8-2.04-1.529-3.057-2.238l-.633-.442a6.312,6.312,0,0,0-3.581-1.36,4.641,4.641,0,0,0-3.863,2.448A2.053,2.053,0,0,1,23.55,29.3a3.5,3.5,0,0,1-1.419-.356,17.081,17.081,0,0,1-8.926-8.691c-.83-1.865-.561-3.085.9-4.077a4.127,4.127,0,0,0,2.264-3.619c-.124-2.28-5.154-9.139-7.273-9.918A4.129,4.129,0,0,0,6.29,2.631,8.125,8.125,0,0,0,1.234,6.79a7.731,7.731,0,0,0,.11,6.24A50.342,50.342,0,0,0,12.391,29.847,53.548,53.548,0,0,0,29.15,40.975a9.28,9.28,0,0,0,1.657.492c.154.035.286.064.383.091a.643.643,0,0,0,.163.023h.052c3.073,0,6.762-2.808,7.9-6.009C40.293,32.769,38.481,31.384,37.024,30.271Z" transform="translate(-0.629 -0.336)" fill="#cb1515"/>
        <path id="XMLID_11_" d="M27.481,12.457a1.906,1.906,0,0,0-2,1.155,1.548,1.548,0,0,0,.064,1.345,2.012,2.012,0,0,0,1.519.8,3.589,3.589,0,0,1,3.331,3.586,1.7,1.7,0,0,0,1.616,1.676h0a1.591,1.591,0,0,0,.192-.012c1.026-.122,1.523-.876,1.478-2.24a6.4,6.4,0,0,0-2-4.328A5.957,5.957,0,0,0,27.481,12.457Z" transform="translate(-4.109 -1.753)" fill="#cb1515"/>
      </g>
    </g>
  </g>
</svg>
