<svg xmlns="http://www.w3.org/2000/svg" xmlns:xlink="http://www.w3.org/1999/xlink" width="18" height="18" viewBox="0 0 18 18">
  <defs>
    <clipPath id="clip-path">
      <rect id="Rectangle_1218" data-name="Rectangle 1218" width="18" height="18" fill="#7d7d7d" stroke="#7d7d7d" stroke-width="1"/>
    </clipPath>
  </defs>
  <g id="Mask_Group_93" data-name="Mask Group 93" clip-path="url(#clip-path)">
    <g id="instagram">
      <g id="Group_2422" data-name="Group 2422" transform="translate(13.795 3.331)">
        <g id="Group_2421" data-name="Group 2421">
          <path id="Path_315" data-name="Path 315" d="M11.167,2.591a.437.437,0,1,0,.437.437A.438.438,0,0,0,11.167,2.591Z" transform="translate(-10.73 -2.591)" fill="#7d7d7d"/>
        </g>
      </g>
      <g id="Group_2424" data-name="Group 2424" transform="translate(5.126 5.126)">
        <g id="Group_2423" data-name="Group 2423">
          <path id="Path_316" data-name="Path 316" d="M7.861,3.987a3.874,3.874,0,1,0,3.874,3.874A3.878,3.878,0,0,0,7.861,3.987Z" transform="translate(-3.987 -3.987)" fill="#7d7d7d"/>
        </g>
      </g>
      <g id="Group_2426" data-name="Group 2426">
        <g id="Group_2425" data-name="Group 2425">
          <path id="Path_317" data-name="Path 317" d="M13.066,0H4.934A4.94,4.94,0,0,0,0,4.934v8.131A4.94,4.94,0,0,0,4.934,18h8.131A4.94,4.94,0,0,0,18,13.066V4.934A4.94,4.94,0,0,0,13.066,0ZM9,13.937A4.937,4.937,0,1,1,13.937,9,4.943,4.943,0,0,1,9,13.937Zm5.232-8.669a1.5,1.5,0,1,1,1.5-1.5A1.5,1.5,0,0,1,14.232,5.268Z" fill="#7d7d7d"/>
        </g>
      </g>
    </g>
  </g>
</svg>
