<svg xmlns="http://www.w3.org/2000/svg" xmlns:xlink="http://www.w3.org/1999/xlink" width="18" height="18" viewBox="0 0 18 18">
  <defs>
    <clipPath id="clip-path">
      <rect id="Rectangle_6860" data-name="Rectangle 6860" width="18" height="18" fill="#7d7d7d" stroke="#7d7d7d" stroke-width="1"/>
    </clipPath>
  </defs>
  <g id="Mask_Group_473" data-name="Mask Group 473" clip-path="url(#clip-path)">
    <g id="download_17_" data-name="download (17)" transform="translate(0.015)">
      <path id="Path_14080" data-name="Path 14080" d="M9,0A8.988,8.988,0,0,0,5.4,17.226a8.017,8.017,0,0,1,.155-2.076c.186-.744,1.146-4.9,1.146-4.9A3.633,3.633,0,0,1,6.427,8.83c0-1.332.775-2.324,1.735-2.324A1.215,1.215,0,0,1,9.37,7.869a19.189,19.189,0,0,1-.806,3.191A1.391,1.391,0,0,0,9.99,12.8c1.7,0,2.85-2.2,2.85-4.771,0-1.983-1.332-3.439-3.749-3.439a4.268,4.268,0,0,0-4.43,4.306,2.579,2.579,0,0,0,.589,1.766.44.44,0,0,1,.124.5c-.031.155-.155.558-.186.713a.318.318,0,0,1-.465.217A3.448,3.448,0,0,1,2.895,8.644c0-2.54,2.138-5.608,6.413-5.608a5.374,5.374,0,0,1,5.7,5.143c0,3.532-1.952,6.165-4.833,6.165a2.609,2.609,0,0,1-2.2-1.115s-.527,2.076-.62,2.479a7.313,7.313,0,0,1-.9,1.921A8.691,8.691,0,0,0,9,18,9,9,0,0,0,9,0" transform="translate(-0.014)" fill="#7d7d7d"/>
    </g>
  </g>
</svg>
