<svg xmlns="http://www.w3.org/2000/svg" xmlns:xlink="http://www.w3.org/1999/xlink" width="18" height="18" viewBox="0 0 18 18">
  <defs>
    <clipPath id="clip-path">
      <rect id="Rectangle_1219" data-name="Rectangle 1219" width="18" height="18" fill="#7d7d7d" stroke="#7d7d7d" stroke-width="1"/>
    </clipPath>
  </defs>
  <g id="Mask_Group_94" data-name="Mask Group 94" clip-path="url(#clip-path)">
    <g id="twitter" transform="translate(0 1.688)">
      <g id="Group_2428" data-name="Group 2428">
        <g id="Group_2427" data-name="Group 2427">
          <path id="Path_318" data-name="Path 318" d="M18,3.044a7.694,7.694,0,0,1-2.126.583A3.669,3.669,0,0,0,17.5,1.587a7.375,7.375,0,0,1-2.34.893A3.69,3.69,0,0,0,8.774,5a3.8,3.8,0,0,0,.086.842,10.445,10.445,0,0,1-7.606-3.86A3.691,3.691,0,0,0,2.387,6.917,3.644,3.644,0,0,1,.72,6.463V6.5a3.707,3.707,0,0,0,2.957,3.626,3.683,3.683,0,0,1-.968.121,3.263,3.263,0,0,1-.7-.063,3.725,3.725,0,0,0,3.448,2.571A7.415,7.415,0,0,1,.883,14.332,6.911,6.911,0,0,1,0,14.282a10.389,10.389,0,0,0,5.661,1.656,10.431,10.431,0,0,0,10.5-10.5c0-.163-.006-.321-.014-.477A7.362,7.362,0,0,0,18,3.044Z" transform="translate(0 -1.313)" fill="#7d7d7d"/>
        </g>
      </g>
    </g>
  </g>
</svg>
